# Blender 4.4.1
# www.blender.org
mtllib enemy.mtl
o 円
v 0.000000 1.000000 -0.000000
v -0.195090 0.980785 -0.000000
v -0.382683 0.923880 -0.000000
v -0.555570 0.831470 -0.000000
v -0.707107 0.707107 -0.000000
v -0.831470 0.555570 -0.000000
v -0.923880 0.382683 -0.000000
v -0.980785 0.195090 -0.000000
v -1.000000 0.000000 0.000000
v -0.980785 -0.195090 0.000000
v -0.923880 -0.382683 0.000000
v -0.831470 -0.555570 0.000000
v -0.707107 -0.707107 0.000000
v -0.555570 -0.831470 0.000000
v -0.382683 -0.923880 0.000000
v -0.195090 -0.980785 0.000000
v 0.000000 -1.000000 0.000000
v 0.195090 -0.980785 0.000000
v 0.382683 -0.923880 0.000000
v 0.555570 -0.831470 0.000000
v 0.707107 -0.707107 0.000000
v 0.831470 -0.555570 0.000000
v 0.923880 -0.382683 0.000000
v 0.980785 -0.195090 0.000000
v 1.000000 0.000000 0.000000
v 0.980785 0.195090 -0.000000
v 0.923880 0.382683 -0.000000
v 0.831470 0.555570 -0.000000
v 0.707107 0.707107 -0.000000
v 0.555570 0.831470 -0.000000
v 0.382683 0.923880 -0.000000
v 0.195090 0.980785 -0.000000
v 1.558324 -0.300000 0.000000
v 1.558324 0.300000 -0.000000
v 0.980785 -0.195090 0.000000
v 1.000000 0.000000 0.000000
v 0.980785 0.195090 -0.000000
v 0.996337 -0.037192 0.000000
v 0.948961 -0.300000 0.000000
v 0.948961 0.300000 -0.000000
vn -0.0000 -0.0000 1.0000
vt 0.566040 0.043807
vt 0.724458 0.566040
vt 0.202225 0.724458
vt 0.999900 0.000100
vt 0.959416 0.222967
vt 0.884133 0.215552
vt 0.139326 0.682430
vt 0.014858 0.496151
vt 0.085835 0.628939
vt 0.043808 0.566040
vt 0.000100 0.421957
vt 0.000100 0.346309
vt 0.014858 0.272115
vt 0.043808 0.202225
vt 0.085835 0.139326
vt 0.272115 0.014858
vt 0.139326 0.085835
vt 0.202225 0.043807
vt 0.346309 0.000100
vt 0.421957 0.000100
vt 0.496151 0.014858
vt 0.628939 0.085835
vt 0.753407 0.272114
vt 0.682430 0.139326
vt 0.724458 0.202225
vt 0.768165 0.346309
vt 0.768165 0.421957
vt 0.753407 0.496151
vt 0.682430 0.628939
vt 0.496151 0.753407
vt 0.628939 0.682430
vt 0.566040 0.724458
vt 0.421957 0.768165
vt 0.346309 0.768165
vt 0.272115 0.753407
vt 0.768366 0.235248
vt 0.768366 0.000100
vt 0.808849 0.222967
vt 0.869781 0.216966
vt 0.999900 0.235247
s 1
usemtl マテリアル
f 17/1/1 25/2/1 1/3/1
f 34/4/1 37/5/1 36/6/1
f 1/3/1 2/7/1 5/8/1
f 2/7/1 3/9/1 5/8/1
f 3/9/1 4/10/1 5/8/1
f 5/8/1 6/11/1 7/12/1
f 7/12/1 8/13/1 5/8/1
f 8/13/1 9/14/1 5/8/1
f 9/14/1 10/15/1 13/16/1
f 10/15/1 11/17/1 13/16/1
f 11/17/1 12/18/1 13/16/1
f 13/16/1 14/19/1 15/20/1
f 15/20/1 16/21/1 13/16/1
f 16/21/1 17/1/1 13/16/1
f 17/1/1 18/22/1 21/23/1
f 18/22/1 19/24/1 21/23/1
f 19/24/1 20/25/1 21/23/1
f 21/23/1 22/26/1 23/27/1
f 23/27/1 24/28/1 21/23/1
f 24/28/1 25/2/1 21/23/1
f 25/2/1 26/29/1 29/30/1
f 26/29/1 27/31/1 29/30/1
f 27/31/1 28/32/1 29/30/1
f 29/30/1 30/33/1 31/34/1
f 31/34/1 32/35/1 29/30/1
f 32/35/1 1/3/1 29/30/1
f 1/3/1 5/8/1 9/14/1
f 9/14/1 13/16/1 17/1/1
f 17/1/1 21/23/1 25/2/1
f 25/2/1 29/30/1 1/3/1
f 1/3/1 9/14/1 17/1/1
f 39/36/1 33/37/1 35/38/1
f 33/37/1 34/4/1 36/6/1
f 35/38/1 33/37/1 38/39/1
f 34/4/1 40/40/1 37/5/1
f 36/6/1 38/39/1 33/37/1
