# Screen-facing triangular neon frame used by the shared particle draw.
mtllib neonTriangleParticle.mtl
o NeonTriangleFrame
v 0.0606 0.9650 0.0000
v -0.0606 1.0350 0.0000
v -0.9266 -0.4650 0.0000
v -0.8054 -0.5350 0.0000
v -0.0606 0.9650 0.0000
v 0.0606 1.0350 0.0000
v 0.9266 -0.4650 0.0000
v 0.8054 -0.5350 0.0000
v -0.8660 -0.4300 0.0000
v -0.8660 -0.5700 0.0000
v 0.8660 -0.5700 0.0000
v 0.8660 -0.4300 0.0000
vt 0.0000 0.0000
vt 1.0000 0.0000
vt 1.0000 1.0000
vt 0.0000 1.0000
vn 0.0000 0.0000 1.0000
vn 0.0000 0.0000 -1.0000
usemtl NeonWhite
f 1/1/1 2/2/1 3/3/1
f 1/1/1 3/3/1 4/4/1
f 5/1/1 7/3/1 6/2/1
f 5/1/1 8/4/1 7/3/1
f 9/1/1 10/2/1 11/3/1
f 9/1/1 11/3/1 12/4/1
f 3/3/2 2/2/2 1/1/2
f 4/4/2 3/3/2 1/1/2
f 6/2/2 7/3/2 5/1/2
f 7/3/2 8/4/2 5/1/2
f 11/3/2 10/2/2 9/1/2
f 12/4/2 11/3/2 9/1/2
