{
  "asset": { "version": "2.0", "generator": "CG2 Assimp integration test" },
  "scene": 0,
  "scenes": [ { "nodes": [ 0 ] } ],
  "nodes": [ { "name": "Root" } ],
  "buffers": [ {
    "byteLength": 48,
    "uri": "data:application/octet-stream;base64,"
  } ],
  "bufferViews": [
    { "buffer": 0, "byteOffset": 0, "byteLength": 12 },
    { "buffer": 0, "byteOffset": 12, "byteLength": 36 }
  ],
  "accessors": [
    { "bufferView": 0, "componentType": 5126, "count": 3, "type": "SCALAR", "min": [ 0.0 ], "max": [ 2.0 ] },
    { "bufferView": 1, "componentType": 5126, "count": 3, "type": "VEC3" }
  ],
  "animations": [ {
    "name": "Assimp_Test_Bounce",
    "samplers": [ { "input": 0, "output": 1, "interpolation": "LINEAR" } ],
    "channels": [ { "sampler": 0, "target": { "node": 0, "path": "translation" } } ]
  } ]
}
